<?xml version="1.0" encoding="UTF-8"?>
<svg viewBox="0 0 576 512" xmlns="http://www.w3.org/2000/svg">
<path d="m381.2 150.3 143.7 21.2c11.9 1.7 21.9 10.1 25.7 21.6 3.8 11.6 0.7 24.2-7.9 32.8l-104.2 102.2 24.6 146.6c2 12-2.9 24.2-12.9 31.3-9.9 7.1-23 8-33.7 2.3l-128.4-68.5-128.3 68.5c-10.8 5.7-23.9 4.8-33.8-2.3s-14.9-19.3-12.8-31.3l24.6-146.6-104.22-102.2c-8.61-8.6-11.67-21.2-7.89-32.8 3.77-11.5 13.74-19.9 25.73-21.6l143.58-21.2 64.4-132.33c5.3-11.016 16.5-18.009 28.7-18.009 12.3 0 23.5 6.9931 28.8 18.009l64.3 132.33z"/>
</svg>
